<mxfile host="app.diagrams.net" modified="2022-10-10T18:58:41.985Z" agent="5.0 (Windows NT 10.0; Win64; x64) AppleWebKit/537.36 (KHTML, like Gecko) Chrome/106.0.0.0 Safari/537.36" etag="2kS1gkrZxhAvROD3zwtb" version="20.4.0" type="github">
  <diagram id="4uwHfOAWRuxP_S3S2kzK" name="Pagina-1">
    <mxGraphModel dx="1123" dy="645" grid="1" gridSize="10" guides="1" tooltips="1" connect="1" arrows="1" fold="1" page="1" pageScale="1" pageWidth="827" pageHeight="1169" math="0" shadow="0">
      <root>
        <mxCell id="0" />
        <mxCell id="1" parent="0" />
        <mxCell id="P5PyDWJyhYaWLaZMwWLl-9" value="" style="rounded=0;whiteSpace=wrap;html=1;fontSize=18;strokeColor=#6c8ebf;fillColor=#dae8fc;" vertex="1" parent="1">
          <mxGeometry x="40" y="160" width="750" height="420" as="geometry" />
        </mxCell>
        <mxCell id="P5PyDWJyhYaWLaZMwWLl-1" value="&lt;font style=&quot;font-size: 18px;&quot;&gt;MVN&lt;/font&gt;" style="rounded=0;whiteSpace=wrap;html=1;strokeColor=#d79b00;fillColor=#ffe6cc;" vertex="1" parent="1">
          <mxGeometry x="350" y="260" width="130" height="60" as="geometry" />
        </mxCell>
        <mxCell id="P5PyDWJyhYaWLaZMwWLl-2" value="Servizio&lt;br&gt;chat" style="rounded=0;whiteSpace=wrap;html=1;fontSize=18;" vertex="1" parent="1">
          <mxGeometry x="80" y="260" width="120" height="60" as="geometry" />
        </mxCell>
        <mxCell id="P5PyDWJyhYaWLaZMwWLl-3" value="" style="endArrow=classic;startArrow=classic;html=1;rounded=0;fontSize=18;exitX=1;exitY=0.5;exitDx=0;exitDy=0;entryX=0;entryY=0.5;entryDx=0;entryDy=0;" edge="1" parent="1" source="P5PyDWJyhYaWLaZMwWLl-2" target="P5PyDWJyhYaWLaZMwWLl-1">
          <mxGeometry width="50" height="50" relative="1" as="geometry">
            <mxPoint x="390" y="300" as="sourcePoint" />
            <mxPoint x="440" y="250" as="targetPoint" />
          </mxGeometry>
        </mxCell>
        <mxCell id="P5PyDWJyhYaWLaZMwWLl-5" value="PayPal" style="rounded=0;whiteSpace=wrap;html=1;fontSize=18;" vertex="1" parent="1">
          <mxGeometry x="360" y="430" width="120" height="60" as="geometry" />
        </mxCell>
        <mxCell id="P5PyDWJyhYaWLaZMwWLl-6" value="" style="endArrow=classic;startArrow=classic;html=1;rounded=0;fontSize=18;entryX=0.5;entryY=1;entryDx=0;entryDy=0;" edge="1" parent="1" target="P5PyDWJyhYaWLaZMwWLl-1">
          <mxGeometry width="50" height="50" relative="1" as="geometry">
            <mxPoint x="415" y="430" as="sourcePoint" />
            <mxPoint x="440" y="350" as="targetPoint" />
          </mxGeometry>
        </mxCell>
        <mxCell id="P5PyDWJyhYaWLaZMwWLl-7" value="MongoDB" style="rounded=0;whiteSpace=wrap;html=1;fontSize=18;" vertex="1" parent="1">
          <mxGeometry x="630" y="260" width="120" height="60" as="geometry" />
        </mxCell>
        <mxCell id="P5PyDWJyhYaWLaZMwWLl-8" value="" style="endArrow=classic;startArrow=classic;html=1;rounded=0;fontSize=18;exitX=1;exitY=0.5;exitDx=0;exitDy=0;entryX=0;entryY=0.5;entryDx=0;entryDy=0;" edge="1" parent="1">
          <mxGeometry width="50" height="50" relative="1" as="geometry">
            <mxPoint x="480" y="289.58" as="sourcePoint" />
            <mxPoint x="630" y="289.58" as="targetPoint" />
          </mxGeometry>
        </mxCell>
      </root>
    </mxGraphModel>
  </diagram>
</mxfile>
